<?xml version="1.0" standalone="no"?><!DOCTYPE svg PUBLIC "-//W3C//DTD SVG 1.1//EN" "http://www.w3.org/Graphics/SVG/1.1/DTD/svg11.dtd"><svg t="1605871611133" class="icon" viewBox="0 0 1024 1024" version="1.1" xmlns="http://www.w3.org/2000/svg" p-id="3190" xmlns:xlink="http://www.w3.org/1999/xlink" width="200" height="200"><defs><style type="text/css"></style></defs><path d="M511.460206 957.754227c-220.267683 0-397.632229-271.938506-397.632229-497.086335 0-219.253586 178.37762-397.62609 397.632229-397.62609 219.241306 0 397.612787 178.372503 397.612787 397.62609C909.072993 685.815721 731.716632 957.754227 511.460206 957.754227zM511.460206 139.92689c-176.85801 0-320.748165 143.882991-320.748165 320.741002 0 185.222515 151.022599 420.201248 320.748165 420.201248 169.723519 0 320.727699-234.978732 320.727699-420.201248C832.187905 283.809881 688.305937 139.92689 511.460206 139.92689z" p-id="3191"></path><path d="M339.308381 524.388145c-59.503209 0-102.688777-26.617218-102.688777-63.294558 0-36.683481 43.185568-63.306838 102.688777-63.306838 59.502186 0 102.700033 26.623357 102.700033 63.306838C442.008414 497.769904 398.81159 524.388145 339.308381 524.388145zM289.929764 461.086423c6.506181 4.875031 23.725354 12.045337 49.378617 12.045337 25.653263 0 42.872436-7.170307 49.392944-12.045337-6.508227-4.874007-23.727401-12.044314-49.392944-12.044314C313.642838 449.042109 296.435944 456.213439 289.929764 461.086423z" p-id="3192"></path><path d="M683.587472 524.388145c-59.501162 0-102.687754-26.617218-102.687754-63.294558 0-36.683481 43.185568-63.306838 102.687754-63.306838 59.502186 0 102.70208 26.623357 102.70208 63.306838C786.289552 497.769904 743.089657 524.388145 683.587472 524.388145zM634.208854 461.086423c6.506181 4.875031 23.726378 12.045337 49.378617 12.045337 25.654286 0 42.872436-7.170307 49.393967-12.045337-6.508227-4.874007-23.727401-12.044314-49.393967-12.044314C657.921929 449.042109 640.715035 456.213439 634.208854 461.086423z" p-id="3193"></path><path d="M511.460206 823.254953c-50.868551 0-90.712001-30.064736-90.712001-68.436672 0-38.375006 39.84345-68.439742 90.712001-68.439742 50.855248 0 90.699722 30.064736 90.699722 68.439742C602.159928 793.190217 562.316477 823.254953 511.460206 823.254953zM511.460206 737.635947c-25.628704 0-39.45664 12.193717-39.45664 17.182334 0 4.985548 13.827937 17.179264 39.45664 17.179264 25.614377 0 39.443337-12.193717 39.443337-17.179264C550.903543 749.829663 537.075607 737.635947 511.460206 737.635947z" p-id="3194"></path><path d="M535.362592 654.356218l-47.829332 0c-14.153348 0-25.626657-11.475356-25.626657-25.628704 0-14.152325 11.474332-25.629727 25.626657-25.629727l47.829332 0c14.152325 0 25.628704 11.477402 25.628704 25.629727C560.991296 642.880863 549.514917 654.356218 535.362592 654.356218z" p-id="3195"></path></svg>