<?xml version="1.0" standalone="no"?><!DOCTYPE svg PUBLIC "-//W3C//DTD SVG 1.1//EN" "http://www.w3.org/Graphics/SVG/1.1/DTD/svg11.dtd"><svg t="1605751358726" class="icon" viewBox="0 0 1024 1024" version="1.1" xmlns="http://www.w3.org/2000/svg" p-id="6488" xmlns:xlink="http://www.w3.org/1999/xlink" width="200" height="200"><defs><style type="text/css"></style></defs><path d="M914.33864 475.693198a27.662325 27.662325 0 0 0 14.325132-22.722624 364.055958 364.055958 0 0 0-135.347805-269.70767 75.577424 75.577424 0 0 0-49.397009-25.686445H335.405692a87.432706 87.432706 0 0 0-58.288471 31.614086 454.946454 454.946454 0 0 0-126.950313 264.273999 16.794983 16.794983 0 0 0 10.373372 15.313073 183.756874 183.756874 0 0 0 111.637241 8.397492h5.927641c0 20.252774-3.457791 41.987458-4.939701 63.722141-5.433671 93.854317-5.927641 246.985046-5.927641 318.610709a49.397009 49.397009 0 0 0 40.999517 45.939219 1814.352147 1814.352147 0 0 0 474.211288 0 41.987458 41.987458 0 0 0 35.565847-40.505548c2.46985-87.432706-5.433671-276.129281-7.903522-324.53835a407.525326 407.525326 0 0 0-6.421611-54.33671h9.385432a155.600579 155.600579 0 0 0 101.263869-10.373372z" fill="#FFFFFF" p-id="6489"></path><path d="M565.595755 976.084901a2150.251809 2150.251809 0 0 1-264.273999-16.301013 101.263869 101.263869 0 0 1-88.420646-98.794018c0-80.023155 0-227.720212 5.927641-321.57453a226.732272 226.732272 0 0 1-80.517125-17.782923 70.143753 70.143753 0 0 1-42.975398-65.204052c0-111.637241 85.456826-246.985046 143.251326-303.297637a140.287506 140.287506 0 0 1 98.794019-49.397009h408.513265a128.926194 128.926194 0 0 1 85.950796 44.457308 411.971056 411.971056 0 0 1 151.154848 306.261457 84.468886 84.468886 0 0 1-40.505547 69.155813 174.865412 174.865412 0 0 1-78.047275 21.734684c2.963821 60.758321 9.879402 239.081524 7.409552 323.55041a98.794018 98.794018 0 0 1-80.517125 92.372407 1326.803666 1326.803666 0 0 1-225.744332 14.819103z m-244.021225-122.998553a1789.159672 1789.159672 0 0 0 444.573082 0c0-88.914616-5.433671-265.755909-7.409551-310.213217a417.898698 417.898698 0 0 0-5.927641-49.397009 54.83068 54.83068 0 0 1 12.349252-43.963339 57.300531 57.300531 0 0 1 41.493488-18.770863h19.758803a119.046792 119.046792 0 0 0 49.39701 0A322.0685 322.0685 0 0 0 757.256151 222.286541a117.070912 117.070912 0 0 0-14.819103-11.361312H336.887603s-6.421611 0-20.252774 15.807043a449.512783 449.512783 0 0 0-108.17945 197.588037 138.311626 138.311626 0 0 0 49.397009 0h21.734684a52.36083 52.36083 0 0 1 39.517607 18.276893 49.397009 49.397009 0 0 1 13.337193 41.493488c0 21.240714-3.457791 41.987458-4.939701 61.746261-5.433671 89.902557-5.927641 239.575494-5.927641 307.249397z" fill="#FFFFFF" p-id="6490"></path><path d="M667.847564 173.877472H396.657984s79.035215 101.757839 124.974433 98.794019 32.602026-29.638205 13.831162-29.638206-80.517125-40.505548-74.589483-49.397009 26.674385-7.903521 188.202604 0M814.556681 772.569223s-26.180415-61.252291-128.926194-31.614086-118.058852 95.830198-175.359382 107.68548-156.588519 18.770863-152.636759 70.143753c40.505548 3.457791 365.537868 16.301013 441.115292-14.325132 14.325133-15.313073 17.288953-64.710082 15.807043-131.890015z" fill="#75BC43" opacity=".35" p-id="6491"></path><path d="M445.561023 169.925712h209.937289l-17.782924 27.662325h-119.540762s-49.397009-3.951761-53.34877 9.385431 39.517607 49.397009 98.794019 58.782441c10.867342 0-18.276893 0-25.192475 8.397492-74.095514 0-135.347805-91.384467-135.347805-91.384467s-5.927641-12.843222 42.481428-12.843222z" fill="#75BC43" opacity=".35" p-id="6492"></path><path d="M841.231066 506.813314a164.492041 164.492041 0 0 1-34.577906-3.457791 6.915581 6.915581 0 0 1-5.433671-7.903521 7.409551 7.409551 0 0 1 7.903521-5.433671A148.191027 148.191027 0 0 0 905.447178 478.657019a22.228654 22.228654 0 0 0 10.867342-16.301013 356.646406 356.646406 0 0 0-130.902074-261.804149 69.649783 69.649783 0 0 0-44.951279-23.710564H333.923782a81.505065 81.505065 0 0 0-53.34877 29.144235c-49.397009 49.397009-123.986493 169.925712-123.986493 258.346358a9.879402 9.879402 0 0 0 7.903522 8.891462 170.419682 170.419682 0 0 0 106.203569 7.903521 7.409551 7.409551 0 0 1 8.891462 4.939701 6.421611 6.421611 0 0 1-6.421611 7.903522 189.190545 189.190545 0 0 1-115.589002-8.891462 23.710564 23.710564 0 0 1-14.819103-21.734684A457.910275 457.910275 0 0 1 271.18958 197.588037a92.372407 92.372407 0 0 1 62.734202-33.589967h406.537385a81.999035 81.999035 0 0 1 54.33671 27.662326 367.019778 367.019778 0 0 1 135.347806 270.69561 37.541727 37.541727 0 0 1-17.288954 28.650265 156.588519 156.588519 0 0 1-71.625663 15.807043z" fill="#231815" p-id="6493"></path><path d="M559.668114 938.543174a2135.926676 2135.926676 0 0 1-257.358418-15.807043 53.84274 53.84274 0 0 1-49.397009-52.8548v-33.095996a6.915581 6.915581 0 0 1 10.373372-9.385431 7.409551 7.409551 0 0 1 7.409551 6.915581v33.095996a38.529667 38.529667 0 0 0 34.577907 38.529667 1784.219971 1784.219971 0 0 0 470.259527 0 35.071877 35.071877 0 0 0 29.144235-33.589966c2.46985-84.962856-4.939701-268.22576-7.409551-322.0685A865.929571 865.929571 0 0 0 757.256151 345.779064a6.915581 6.915581 0 0 1 0-6.915581 7.409551 7.409551 0 0 1 9.385431 3.457791 857.532079 857.532079 0 0 1 43.963338 207.961408c2.963821 53.84274 9.879402 237.599614 7.903522 323.05644a49.397009 49.397009 0 0 1-40.999518 49.397009A1392.501688 1392.501688 0 0 1 559.668114 938.543174z" fill="#231815" p-id="6494"></path><path d="M263.286059 827.893874a6.915581 6.915581 0 0 1-6.915581-6.915582v-8.891461a7.409551 7.409551 0 0 1 6.915581-7.409552 7.409551 7.409551 0 0 1 6.915581 7.409552v8.397491a6.421611 6.421611 0 0 1-6.421611 7.409552zM263.286059 790.352147a7.409551 7.409551 0 0 1-6.915581-7.409552c0-41.987458 0-183.756874 4.9397-232.165943a1701.726966 1701.726966 0 0 1 26.674385-211.913169 5.927641 5.927641 0 0 1 6.915582-5.433671 8.397492 8.397492 0 0 1 5.433671 8.397491 1661.715388 1661.715388 0 0 0-26.180415 209.443319c-2.963821 49.397009-4.939701 189.684515-5.433671 232.165943A6.915581 6.915581 0 0 1 263.286059 790.352147zM837.279305 470.753497a135.841775 135.841775 0 0 1-44.457308-5.927641 7.409551 7.409551 0 0 1-4.445731-8.891461 7.409551 7.409551 0 0 1 8.891462-4.445731 157.576459 157.576459 0 0 0 121.022672-17.288953 7.903521 7.903521 0 0 1 9.879402 2.46985 6.421611 6.421611 0 0 1 0 8.891462 164.986011 164.986011 0 0 1-90.890497 25.192474z" fill="#231815" p-id="6495"></path><path d="M228.214182 458.898215a102.745779 102.745779 0 0 1-76.565364-28.156295 6.915581 6.915581 0 0 1 12.843223-9.385432 105.21563 105.21563 0 0 0 108.17945 17.782923 7.903521 7.903521 0 0 1 6.421611 5.433671 6.915581 6.915581 0 0 1-4.939701 8.397492 159.05837 159.05837 0 0 1-45.939219 5.927641zM602.643512 249.948866a3.457791 3.457791 0 0 1-4.445731 0 6.915581 6.915581 0 0 1 0-8.891461l70.143753-75.577424a6.915581 6.915581 0 0 1 10.373372 9.385431L606.101302 246.985046a4.939701 4.939701 0 0 1-3.45779 2.96382zM534.475639 279.587072a98.794018 98.794018 0 0 1-68.661843-26.674385L380.356971 173.383502a6.915581 6.915581 0 0 1 0-8.891461 7.409551 7.409551 0 0 1 9.879401 0l85.950796 78.541244a87.926676 87.926676 0 0 0 98.794019 12.349252 6.421611 6.421611 0 0 1 8.891461 0 7.409551 7.409551 0 0 1-2.46985 9.879402 95.336228 95.336228 0 0 1-46.927159 14.325133z" fill="#231815" p-id="6496"></path></svg>