<?xml version="1.0" standalone="no"?><!DOCTYPE svg PUBLIC "-//W3C//DTD SVG 1.1//EN" "http://www.w3.org/Graphics/SVG/1.1/DTD/svg11.dtd"><svg t="1605704879528" class="icon" viewBox="0 0 1024 1024" version="1.1" xmlns="http://www.w3.org/2000/svg" p-id="12684" xmlns:xlink="http://www.w3.org/1999/xlink" width="200" height="200"><defs><style type="text/css"></style></defs><path d="M867.863273 272.360727c9.355636 0 26.530909 24.948364 26.530909 65.722182s-17.175273 65.722182-26.530909 65.722182-26.530909-24.948364-26.530909-65.722182 17.175273-65.722182 26.530909-65.722182m0-23.272727c-27.508364 0-49.803636 39.842909-49.803637 88.994909s22.295273 88.994909 49.803637 88.994909 49.803636-39.842909 49.803636-88.994909-22.318545-88.994909-49.803636-88.994909z" fill="#666666" p-id="12685"></path><path d="M670.045091 479.674182h-69.818182a17.454545 17.454545 0 0 1 0-34.909091h69.818182a17.454545 17.454545 0 0 1 0 34.909091z m-139.636364 0h-69.818182a17.454545 17.454545 0 0 1 0-34.909091h69.818182a17.454545 17.454545 0 1 1 0 34.909091z m-139.636363 0h-69.818182a17.454545 17.454545 0 0 1 0-34.909091h69.818182a17.454545 17.454545 0 0 1 0 34.909091z m-139.636364 0h-69.818182a17.454545 17.454545 0 0 1 0-34.909091h69.818182a17.454545 17.454545 0 0 1 0 34.909091z m-139.636364 0h-69.818181a17.454545 17.454545 0 0 1 0-34.909091h69.818181a17.454545 17.454545 0 0 1 0 34.909091z" fill="#EFB041" p-id="12686"></path><path d="M855.249455 628.549818c-95.720727 0-170.705455-127.557818-170.705455-290.420363 0-162.746182 75.054545-290.210909 170.868364-290.21091v34.909091c-73.704727 0-135.959273 116.922182-135.959273 255.301819 0 138.496 62.184727 255.511273 135.796364 255.511272v34.909091z" fill="#666666" p-id="12687"></path><path d="M842.100364 976.733091c-22.900364 0-111.988364-0.139636-218.530909-0.302546-158.510545-0.232727-355.677091-0.512-431.104-0.512-92.509091 0-190.836364-103.470545-190.836364-295.26109V338.059636C1.629091 175.010909 76.846545 47.266909 172.893091 47.266909c2.699636 0 5.352727 0.279273 8.005818 0.581818l661.643636 0.162909c1.605818-0.232727 4.864-0.256 8.168728-0.256h0.093091c96.349091 0 171.566545 127.511273 171.566545 290.280728 0 158.789818-72.494545 285.463273-165.585454 290.466909a17.780364 17.780364 0 0 1-3.351273 0.325818h-134.283637v63.930182c0 89.320727 15.592727 189.021091 131.188364 251.089454a17.454545 17.454545 0 0 1-8.238545 32.884364zM172.893091 82.176c-73.914182 0-136.354909 117.178182-136.354909 255.883636v342.597819c0 169.099636 80.337455 260.352 155.927273 260.352 75.450182 0 272.64 0.302545 431.150545 0.512l160.605091 0.232727c-99.979636-81.664-99.979636-196.235636-99.979636-248.948364V328.192h34.90909v265.751273h131.607273a17.384727 17.384727 0 0 1 2.187637-0.209455c74.170182-1.978182 134.493091-116.689455 134.49309-255.674182 0-138.426182-62.440727-255.371636-136.331636-255.371636-2.490182 0-4.724364-0.023273-6.912 0.186182l-662.760727 0.069818-4.654546-0.395636c-1.28-0.162909-2.583273-0.372364-3.886545-0.372364z" fill="#666666" p-id="12688"></path></svg>