<?xml version="1.0" standalone="no"?><!DOCTYPE svg PUBLIC "-//W3C//DTD SVG 1.1//EN" "http://www.w3.org/Graphics/SVG/1.1/DTD/svg11.dtd"><svg t="1605879244948" class="icon" viewBox="0 0 1024 1024" version="1.1" xmlns="http://www.w3.org/2000/svg" p-id="6033" xmlns:xlink="http://www.w3.org/1999/xlink" width="200" height="200"><defs><style type="text/css"></style></defs><path d="M946.338644 242.895087h-126.178486c-18.025498 36.050996-45.063745 69.097742-81.114741 90.12749H931.317396v120.169987H90.12749v-120.169987h192.271978c-36.050996-21.029748-63.089243-54.076494-81.114741-90.12749H75.106242C33.046746 242.895087 0 275.941834 0 318.001329v150.212483C0 510.273308 33.046746 543.320054 75.106242 543.320054h871.232402c42.059495 0 75.106242-33.046746 75.106242-75.106242v-150.212483C1021.444886 275.941834 988.398139 242.895087 946.338644 242.895087z" fill="#5490D6" p-id="6034"></path><path d="M709.002921 242.895087H201.284727c18.025498 36.050996 45.063745 69.097742 81.114741 90.12749h456.645949c36.050996-21.029748 63.089243-54.076494 81.114741-90.12749h-111.157237zM841.189906 543.320054v390.552456H180.25498V543.320054h660.934926m90.12749-90.12749H90.12749v480.679946c0 51.072244 39.055246 90.12749 90.12749 90.12749h660.934926c51.072244 0 90.12749-39.055246 90.12749-90.12749V453.192564z" fill="#5490D6" p-id="6035"></path><path d="M799.130411 44.61461C766.083664 11.567863 718.01567-3.453385 663.939176 2.555114c-63.089243 9.012749-120.169987 48.067995-153.216733 102.144489C477.675697 50.623109 423.599203 11.567863 357.50571 2.555114c-54.076494-9.012749-102.144489 6.008499-135.191235 42.059496S174.24648 128.7336 180.25498 179.805844c3.00425 24.033997 12.016999 45.063745 21.029747 63.089243h111.157238C291.412217 224.869589 276.390969 197.831342 270.38247 167.788846c-3.00425-21.029748 0-45.063745 15.021248-60.084993s36.050996-18.025498 60.084993-15.021249c51.072244 6.008499 93.13174 48.067995 105.148739 99.140239l12.016998 51.072244h3.00425v781.104913h90.12749V242.895087h3.004249l12.016999-51.072244c12.016999-51.072244 54.076494-90.12749 105.148738-99.140239 21.029748-3.00425 45.063745 0 60.084994 15.021249s18.025498 36.050996 15.021248 60.084993c-3.00425 30.042497-21.029748 54.076494-42.059495 75.106241h111.157237c9.012749-18.025498 15.021248-39.055246 18.025498-63.089243 9.012749-51.072244-6.008499-99.140239-39.055245-135.191234z" fill="#A3CCFA" p-id="6036"></path></svg>