<?xml version="1.0" standalone="no"?><!DOCTYPE svg PUBLIC "-//W3C//DTD SVG 1.1//EN" "http://www.w3.org/Graphics/SVG/1.1/DTD/svg11.dtd"><svg t="1605926757499" class="icon" viewBox="0 0 1024 1024" version="1.1" xmlns="http://www.w3.org/2000/svg" p-id="19501" xmlns:xlink="http://www.w3.org/1999/xlink" width="200" height="200"><defs><style type="text/css"></style></defs><path d="M384.277504 24.596173 124.906802 24.596173c-60.50857 0-109.732557 49.232282-109.732557 109.728051l0 738.190579c0 60.478464 49.226138 109.730099 109.732557 109.730099L384.277455 982.244902c60.509594 0 109.734605-49.252762 109.734605-109.731123L494.01206 134.325311C494.014157 73.830502 444.788019 24.596173 384.277504 24.596173zM434.157466 872.514867c0 27.512627-22.375526 49.878016-49.880064 49.878016L124.906802 922.392883c-27.50249 0-49.880064-22.365389-49.880064-49.878016L75.026738 134.325311c0-27.508531 22.378598-49.878016 49.880064-49.878016L384.277455 84.447295c27.505562 0 49.880064 22.368461 49.880064 49.878016L434.157519 872.514867zM903.022899 24.596173 643.651178 24.596173c-60.506522 0-109.733581 49.232282-109.733581 109.728051l0 738.190579c0 60.478464 49.227162 109.730099 109.733581 109.730099L903.022854 982.244902c60.50857 0 109.732557-49.252762 109.732557-109.731123L1012.755411 134.325311C1012.75648 73.830502 963.531366 24.596173 903.022899 24.596173zM952.899789 872.514867c0 27.512627-22.374502 49.878016-49.876992 49.878016L643.651178 922.392883c-27.501466 0-49.87904-22.365389-49.87904-49.878016L593.772138 543.31624l359.128675 0L952.900813 872.514867 952.899789 872.514867zM952.899789 483.466138 593.772167 483.466138 593.772167 134.325311c0-27.508531 22.377574-49.878016 49.87904-49.878016L903.022854 84.447295c27.50249 0 49.876992 22.368461 49.876992 49.878016L952.899846 483.46613zM114.9312 124.351181l279.322829 0 0 59.849114-279.322829 0 0-59.849114ZM114.9312 224.105062l279.322829 0 0 59.850138-279.322829 0 0-59.850138ZM114.9312 323.855974l279.322829 0 0 59.855258-279.322829 0 0-59.855258ZM675.245056 373.734912c-19.298304 0-34.912563 15.644262-34.912563 34.914202s15.614259 34.91113 34.912563 34.91113c19.270656 0 34.913587-15.642214 34.913587-34.91113S694.515712 373.734912 675.245056 373.734912zM675.245056 663.03488c19.270656 0 34.913587-15.66679 34.913587-34.915226 0-19.288269-15.642931-34.913178-34.913587-34.912154-19.298304 0-34.912563 15.625933-34.912563 34.912154C640.332493 647.36809 655.946752 663.03488 675.245056 663.03488z" p-id="19502"></path></svg>