<?xml version="1.0" standalone="no"?><!DOCTYPE svg PUBLIC "-//W3C//DTD SVG 1.1//EN" "http://www.w3.org/Graphics/SVG/1.1/DTD/svg11.dtd"><svg t="1605702781436" class="icon" viewBox="0 0 1024 1024" version="1.1" xmlns="http://www.w3.org/2000/svg" p-id="8217" xmlns:xlink="http://www.w3.org/1999/xlink" width="200" height="200"><defs><style type="text/css"></style></defs><path d="M668.444444 327.111111h156.444445v587.847111L500.152889 730.083556 156.444444 914.958222V327.111111h170.666667" fill="#BAD4FF" p-id="8218"></path><path d="M832 952.888889c-3.512889 0-7.025778-0.867556-10.225778-2.616889L493.184 771.057778 173.994667 950.172444A21.333333 21.333333 0 0 1 142.222222 931.555556v-725.333334a21.333333 21.333333 0 0 1 21.333334-21.333333H327.111111a21.333333 21.333333 0 1 1 0 42.666667H184.888889v667.562666l297.713778-167.068444a21.333333 21.333333 0 0 1 20.650666-0.113778L810.666667 895.616V227.555556H668.444444a21.333333 21.333333 0 1 1 0-42.666667h163.555556a21.333333 21.333333 0 0 1 21.333333 21.333333v725.333334a21.333333 21.333333 0 0 1-21.333333 21.333333zM654.222222 113.777778H355.555556a21.333333 21.333333 0 1 1 0-42.666667h298.666666a21.333333 21.333333 0 1 1 0 42.666667z" fill="#4E8CEE" p-id="8219"></path><path d="M597.333333 497.777778h-85.333333v-85.333334a21.333333 21.333333 0 1 0-42.666667 0v85.333334h-85.333333a21.333333 21.333333 0 1 0 0 42.666666h85.333333v85.333334a21.333333 21.333333 0 1 0 42.666667 0v-85.333334h85.333333a21.333333 21.333333 0 0 0 0-42.666666z" fill="#4E8CEE" p-id="8220"></path></svg>