<?xml version="1.0" standalone="no"?><!DOCTYPE svg PUBLIC "-//W3C//DTD SVG 1.1//EN" "http://www.w3.org/Graphics/SVG/1.1/DTD/svg11.dtd"><svg t="1607253924666" class="icon" viewBox="0 0 1024 1024" version="1.1" xmlns="http://www.w3.org/2000/svg" p-id="3149" xmlns:xlink="http://www.w3.org/1999/xlink" width="200" height="200"><defs><style type="text/css"></style></defs><path d="M330.666667 512a35.84 35.84 0 0 0 11.52 26.453333l235.52 220.586667a35.84 35.84 0 1 0 49.066666-52.48L419.413333 512l207.36-194.56a35.84 35.84 0 1 0-49.066666-52.48L341.333333 484.266667a35.84 35.84 0 0 0-10.666666 27.733333zM512 0a512 512 0 1 0 512 512A512 512 0 0 0 512 0z m0 72.106667a439.466667 439.466667 0 0 1 170.666667 844.373333A439.466667 439.466667 0 0 1 200.533333 200.533333a438.613333 438.613333 0 0 1 311.04-128z" fill="#5E5C5C" p-id="3150"></path></svg>