<?xml version="1.0" standalone="no"?><!DOCTYPE svg PUBLIC "-//W3C//DTD SVG 1.1//EN" "http://www.w3.org/Graphics/SVG/1.1/DTD/svg11.dtd"><svg t="1605871715955" class="icon" viewBox="0 0 1024 1024" version="1.1" xmlns="http://www.w3.org/2000/svg" p-id="4101" xmlns:xlink="http://www.w3.org/1999/xlink" width="200" height="200"><defs><style type="text/css"></style></defs><path d="M729.6 652.8l19.2-236.8c0 0 0 0 0 0 0-25.6 12.8-51.2 38.4-51.2 0 0 6.4 0 6.4 0L896 364.8c25.6 0 38.4 25.6 38.4 51.2l0 377.6c0 25.6-12.8 51.2-38.4 51.2l-179.2 0L729.6 652.8zM716.8 492.8C716.8 492.8 716.8 492.8 716.8 492.8L704 633.6 320 633.6 307.2 492.8c0 0 0 0 0 0l0 0L300.8 409.6l0 0c0-38.4-25.6-76.8-70.4-83.2l-12.8 0L217.6 217.6c0-19.2 6.4-32 19.2-44.8 12.8-12.8 32-19.2 51.2-19.2l460.8 0c19.2 0 38.4 6.4 51.2 19.2 12.8 12.8 19.2 32 19.2 44.8l-6.4 108.8-12.8 0c-44.8 0-70.4 38.4-70.4 83.2l0 0L716.8 492.8 716.8 492.8zM691.2 838.4 332.8 838.4 320 659.2l384 0L691.2 838.4zM307.2 838.4 128 838.4c-25.6 0-38.4-32-38.4-51.2L89.6 409.6C89.6 384 102.4 358.4 128 358.4l102.4 0c0 0 6.4 0 6.4 0C262.4 358.4 275.2 384 275.2 409.6c0 0 0 0 0 0l12.8 224L307.2 838.4zM134.4 876.8c0 12.8 12.8 19.2 19.2 19.2l83.2 0c12.8 0 19.2-12.8 19.2-19.2l0-12.8 499.2 0 0 12.8c0 12.8 12.8 19.2 19.2 19.2l83.2 0c12.8 0 19.2-6.4 19.2-19.2 0 0 0 0 0 0l0-12.8 12.8 0c38.4-6.4 57.6-44.8 57.6-76.8L947.2 409.6c0-38.4-25.6-76.8-64-76.8l-64 0L832 217.6c0-25.6-6.4-51.2-25.6-64-19.2-19.2-44.8-25.6-70.4-25.6L281.6 128C256 121.6 230.4 134.4 211.2 153.6 198.4 172.8 185.6 192 192 217.6L192 326.4 128 326.4c-44.8 0-64 38.4-64 76.8l0 377.6c0 38.4 19.2 76.8 57.6 76.8l12.8 0L134.4 876.8C134.4 876.8 134.4 876.8 134.4 876.8z" p-id="4102"></path></svg>