<?xml version="1.0" standalone="no"?><!DOCTYPE svg PUBLIC "-//W3C//DTD SVG 1.1//EN" "http://www.w3.org/Graphics/SVG/1.1/DTD/svg11.dtd"><svg t="1605872053066" class="icon" viewBox="0 0 1024 1024" version="1.1" xmlns="http://www.w3.org/2000/svg" p-id="12138" xmlns:xlink="http://www.w3.org/1999/xlink" width="200" height="200"><defs><style type="text/css"></style></defs><path d="M698.863 346.275C686.336 253.267 606.003 183.13 512 183.13s-174.337 70.137-186.863 163.145l-39.642-5.339c7.321-54.358 34.121-104.357 75.464-140.787C402.687 163.38 456.327 143.13 512 143.13s109.313 20.25 151.041 57.019c41.343 36.43 68.143 86.429 75.464 140.787l-39.642 5.339z" fill="#2BAC9A" p-id="12139"></path><path d="M777.376 880.87H246.624c-44.112 0-80-35.888-80-80V403.605c0-44.112 35.888-80 80-80h530.752c44.112 0 80 35.888 80 80V800.87c0 44.112-35.888 80-80 80zM246.624 363.605c-22.056 0-40 17.944-40 40V800.87c0 22.056 17.944 40 40 40h530.752c22.056 0 40-17.944 40-40V403.605c0-22.056-17.944-40-40-40H246.624z" fill="#2BAC9A" p-id="12140"></path><path d="M194.419 447.737h634.066v33.372H194.419z" fill="#2BAC9A" p-id="12141"></path><path d="M578.744 672.684H445.256c-9.215 0-16.686-7.471-16.686-16.686s7.471-16.686 16.686-16.686h133.488c9.215 0 16.686 7.471 16.686 16.686s-7.471 16.686-16.686 16.686z" fill="#43EFCE" p-id="12142"></path><path d="M495.314 722.742V589.254c0-9.215 7.471-16.686 16.686-16.686s16.686 7.471 16.686 16.686v133.488c0 9.215-7.471 16.686-16.686 16.686-9.215-0.001-16.686-7.471-16.686-16.686z" fill="#43EFCE" p-id="12143"></path></svg>