<?xml version="1.0" standalone="no"?><!DOCTYPE svg PUBLIC "-//W3C//DTD SVG 1.1//EN" "http://www.w3.org/Graphics/SVG/1.1/DTD/svg11.dtd"><svg t="1605751309874" class="icon" viewBox="0 0 1024 1024" version="1.1" xmlns="http://www.w3.org/2000/svg" p-id="5509" xmlns:xlink="http://www.w3.org/1999/xlink" width="200" height="200"><defs><style type="text/css"></style></defs><path d="M592.896 866.304c-82.944 0-164.864-34.816-223.232-102.4L209.92 581.632c-101.376-116.736-98.304-287.744 8.192-399.36 14.336-15.36 33.792-23.552 54.272-22.528 20.48 0 38.912 9.216 52.224 24.576l67.584 76.8c10.24 12.288 16.384 27.648 15.36 44.032-1.024 16.384-8.192 30.72-20.48 41.984l-81.92 71.68c-9.216 8.192-15.36 19.456-16.384 32.768-1.024 12.288 3.072 24.576 11.264 34.816l184.32 210.944c8.192 9.216 19.456 15.36 32.768 16.384 12.288 1.024 24.576-3.072 34.816-11.264l81.92-71.68c12.288-10.24 27.648-16.384 44.032-15.36 16.384 1.024 30.72 8.192 41.984 20.48l59.392 68.608c13.312 15.36 19.456 34.816 17.408 55.296-2.048 20.48-13.312 38.912-29.696 51.2-52.224 35.84-113.664 55.296-174.08 55.296zM272.384 179.2c-14.336 0-28.672 6.144-37.888 16.384-99.328 103.424-102.4 264.192-8.192 371.712l159.744 182.272c94.208 108.544 253.952 125.952 369.664 41.984 12.288-9.216 20.48-22.528 21.504-36.864 2.048-14.336-3.072-28.672-12.288-39.936l-59.392-68.608c-14.336-16.384-39.936-18.432-57.344-4.096l-81.92 71.68c-28.672 24.576-71.68 21.504-96.256-6.144l-184.32-210.944c-24.576-28.672-21.504-71.68 6.144-96.256l81.92-71.68c8.192-7.168 13.312-17.408 13.312-27.648s-3.072-21.504-10.24-29.696L309.248 194.56c-9.216-11.264-22.528-17.408-37.888-17.408 2.048 2.048 1.024 2.048 1.024 2.048z" p-id="5510"></path><path d="M759.808 478.208H516.096c-23.552 0-43.008-19.456-43.008-43.008v-143.36c0-23.552 19.456-43.008 43.008-43.008h243.712c23.552 0 43.008 19.456 43.008 43.008v143.36c-1.024 24.576-19.456 43.008-43.008 43.008zM516.096 270.336c-12.288 0-22.528 10.24-22.528 22.528v143.36c0 12.288 10.24 22.528 22.528 22.528h243.712c12.288 0 22.528-10.24 22.528-22.528v-143.36c0-12.288-10.24-22.528-22.528-22.528H516.096z" p-id="5511"></path><path d="M874.496 467.968c-3.072 0-6.144-1.024-8.192-4.096l-78.848-90.112c-5.12-5.12-5.12-14.336 0-19.456l78.848-90.112c3.072-4.096 8.192-5.12 12.288-3.072 5.12 2.048 8.192 7.168 8.192 13.312v179.2c0 6.144-3.072 11.264-8.192 13.312-1.024 1.024-3.072 1.024-4.096 1.024z m-68.608-103.424l60.416 68.608V294.912l-60.416 69.632z" p-id="5512"></path></svg>