<?xml version="1.0" standalone="no"?><!DOCTYPE svg PUBLIC "-//W3C//DTD SVG 1.1//EN" "http://www.w3.org/Graphics/SVG/1.1/DTD/svg11.dtd"><svg t="1605871816404" class="icon" viewBox="0 0 1024 1024" version="1.1" xmlns="http://www.w3.org/2000/svg" p-id="6500" xmlns:xlink="http://www.w3.org/1999/xlink" width="200" height="200"><defs><style type="text/css"></style></defs><path d="M390.18496 188.3136c17.87904-66.68288 86.71232-107.19232 153.7024-90.48064a122.44992 122.44992 0 0 1 89.43616 88.65792l129.47456-1.00352a30.67904 30.67904 0 0 1 31.62112 30.37184 31.80544 31.80544 0 0 1-32.11264 31.82592l-502.0672 3.82976a30.67904 30.67904 0 0 1-31.6416-30.37184 31.80544 31.80544 0 0 1 32.11264-31.82592l129.47456-1.00352z m234.3936 289.54624a228.88448 228.88448 0 0 1 134.36928 210.47296l-1.2288 160.11264c-0.32768 40.40704-33.62816 73.4208-74.40384 73.728l-354.4064 2.70336c-40.7552 0.3072-73.56416-32.21504-73.25696-72.62208l1.20832-160.09216c0.67584-90.7264 54.33344-173.62944 137.60512-212.5824 0.3072 42.14784 38.0928 114.0736 113.39776 215.8592 76.88192-102.912 115.79392-175.43168 116.71552-217.6v0.02048z m-3.072-28.22144c-14.7456-61.07136-76.84096-97.95584-138.69056-82.39104a117.00224 117.00224 0 0 0-84.82816 84.11136c-33.81248-41.49248-54.82496-101.94944-54.29248-169.3696 0-3.4816 0.1024-6.92224 0.24576-10.38336l334.35648-2.51904c0.1024 3.44064 0.12288 6.90176 0.1024 10.36288-0.512 67.42016-22.46656 128.18432-56.89344 170.1888z m-184.13568-106.14784a21.21728 21.21728 0 0 0 21.07392-20.91008 20.45952 20.45952 0 0 0-20.76672-20.5824 21.21728 21.21728 0 0 0-21.0944 20.8896 20.45952 20.45952 0 0 0 20.7872 20.60288z m146.41152-1.10592a21.21728 21.21728 0 0 0 21.0944-20.91008 20.45952 20.45952 0 0 0-20.7872-20.5824 21.21728 21.21728 0 0 0-21.0944 20.91008 20.45952 20.45952 0 0 0 20.7872 20.5824z m-75.59168 311.58272c-62.13632-82.67776-93.06112-141.18912-92.79488-175.55456 0.14336-51.52768 42.43456-93.7984 94.4128-94.45376 51.99872-0.6144 94.0032 40.63232 93.85984 92.16v0.86016c-0.26624 34.36544-32.07168 93.34784-95.47776 176.98816z m1.51552-196.99712c17.32608-0.14336 31.4368-9.50272 31.5392-20.97152 0.06144-11.44832-13.90592-20.62336-31.25248-20.50048-17.32608 0.14336-31.4368 9.54368-31.51872 20.992-0.08192 11.44832 13.88544 20.60288 31.232 20.48z" p-id="6501"></path></svg>