<?xml version="1.0" standalone="no"?><!DOCTYPE svg PUBLIC "-//W3C//DTD SVG 1.1//EN" "http://www.w3.org/Graphics/SVG/1.1/DTD/svg11.dtd"><svg t="1605883143546" class="icon" viewBox="0 0 1024 1024" version="1.1" xmlns="http://www.w3.org/2000/svg" p-id="8607" xmlns:xlink="http://www.w3.org/1999/xlink" width="200" height="200"><defs><style type="text/css"></style></defs><path d="M512 186.181818c-94.254545 0-170.666667 76.427636-170.666667 170.666667 0 94.254545 76.412121 170.666667 170.666667 170.666667s170.666667-76.412121 170.666667-170.666667c0-94.23903-76.412121-170.666667-170.666667-170.666667" fill="#444444" p-id="8608"></path><path d="M398.165333 484.010667c-7.912727-7.090424-15.158303-14.863515-21.628121-23.319273a67.072 67.072 0 0 1-59.578182 36.352 67.149576 67.149576 0 0 1-67.056485-67.056485 67.149576 67.149576 0 0 1 91.803152-62.324364A170.821818 170.821818 0 0 1 341.333333 356.848485c0-7.090424 0.465455-14.087758 1.303273-20.945455a97.512727 97.512727 0 0 0-123.190303 94.099394c-0.015515 33.82303 17.206303 63.612121 43.333818 81.144243C208.833939 540.392727 170.666667 612.072727 170.666667 695.885576h30.471757c0-23.769212 3.428848-46.778182 10.131394-68.344243 6.330182-20.417939 15.39103-38.710303 26.825697-54.178909 21.721212-29.556364 49.757091-45.862788 78.863515-45.862788 17.749333 0 35.033212 6.019879 50.734546 17.37697 7.323152-7.540364 14.941091-14.475636 22.853818-20.883394-6.237091-4.964848-12.722424-9.293576-19.502546-12.955151a96.550788 96.550788 0 0 0 27.120485-27.042909zM317.564121 843.713939c-0.465455-7.850667-0.620606-15.701333-0.620606-23.629575 0-41.285818 5.725091-81.221818 17.066667-118.784 10.752-35.498667 25.987879-67.273697 45.257697-94.239031C415.930182 555.783758 463.080727 527.515152 512 527.515152c48.919273 0 96.085333 28.268606 132.716606 79.546181 19.285333 26.965333 34.521212 58.740364 45.273212 94.239031 11.341576 37.562182 17.066667 77.498182 17.066667 118.784 0 7.928242-0.232727 15.778909-0.620606 23.629575h48.841697c0.387879-7.773091 0.620606-15.701333 0.620606-23.629575 0-188.493576-109.195636-341.333333-243.820606-341.333334s-243.898182 152.839758-243.898182 341.333334c0 7.928242 0.232727 15.856485 0.620606 23.629575h48.764121z" fill="#444444" p-id="8609"></path><path d="M633.37503 524.086303c7.912727 6.407758 15.546182 13.34303 22.853818 20.883394 15.778909-11.434667 33.078303-17.454545 50.827637-17.454545 29.106424 0 57.142303 16.306424 78.848 45.800727 11.434667 15.530667 20.417939 33.745455 26.825697 54.147879 6.702545 21.566061 10.131394 44.590545 10.131394 68.359757h30.471757c0-83.812848-38.167273-155.508364-92.113454-184.769939a97.528242 97.528242 0 0 0 43.364848-81.144243A97.512727 97.512727 0 0 0 681.363394 335.84097c0.837818 6.857697 1.287758 13.85503 1.287758 20.945454 0 3.661576-0.155152 7.245576-0.372364 10.814061a67.149576 67.149576 0 0 1 91.803151 62.324363 67.149576 67.149576 0 0 1-67.040969 67.056485 67.087515 67.087515 0 0 1-59.578182-36.336485A169.177212 169.177212 0 0 1 625.819152 483.933091a97.807515 97.807515 0 0 0 27.042909 27.198061 133.383758 133.383758 0 0 0-19.502546 12.955151z" fill="#444444" p-id="8610"></path><path d="M598.171152 270.677333A120.847515 120.847515 0 0 1 633.902545 356.848485c0 32.535273-12.644848 63.162182-35.731393 86.171151A120.847515 120.847515 0 0 1 512 478.75103a120.847515 120.847515 0 0 1-86.171152-35.731394A121.297455 121.297455 0 0 1 390.097455 356.848485c0-32.535273 12.644848-63.146667 35.731393-86.171152A121.297455 121.297455 0 0 1 512 234.945939c32.535273 0 63.146667 12.644848 86.171152 35.731394z" fill="#F8D02D" p-id="8611"></path></svg>