<?xml version="1.0" standalone="no"?><!DOCTYPE svg PUBLIC "-//W3C//DTD SVG 1.1//EN" "http://www.w3.org/Graphics/SVG/1.1/DTD/svg11.dtd"><svg t="1605703256402" class="icon" viewBox="0 0 1024 1024" version="1.1" xmlns="http://www.w3.org/2000/svg" p-id="10469" xmlns:xlink="http://www.w3.org/1999/xlink" width="200" height="200"><defs><style type="text/css"></style></defs><path d="M602.24 949.333333H426.666667V938.666667a92.16 92.16 0 0 0-91.52-90.026667 91.093333 91.093333 0 0 0-64 26.24l-7.466667 7.466667-119.68-119.68 7.253333-7.466667A91.52 91.52 0 0 0 85.333333 599.893333h-10.666666v-167.68H85.333333A91.946667 91.946667 0 0 0 177.066667 341.333333a90.666667 90.666667 0 0 0-29.44-66.986666l-8.106667-7.466667 123.306667-123.306667 7.466666 7.466667A91.733333 91.733333 0 0 0 426.666667 85.333333v-10.666666h175.146666V85.333333a91.52 91.52 0 0 0 154.026667 66.986667l7.466667-7.04 117.546666 117.333333-7.466666 7.466667A91.733333 91.733333 0 0 0 938.666667 426.666667h10.666666v167.68H938.666667a91.946667 91.946667 0 0 0-91.733334 91.733333 90.88 90.88 0 0 0 27.733334 65.92l7.893333 7.466667-118.826667 119.253333-7.466666-7.04A91.52 91.52 0 0 0 602.24 938.666667z m-154.24-21.333333h133.76a112.64 112.64 0 0 1 181.546667-78.506667L853.333333 759.466667a111.786667 111.786667 0 0 1-27.306666-73.386667 113.28 113.28 0 0 1 102.4-112.64V448a113.066667 113.066667 0 0 1-76.586667-184.533333l-88.96-88.96a112.213333 112.213333 0 0 1-68.906667 23.893333 113.28 113.28 0 0 1-112.64-102.4H448a113.28 113.28 0 0 1-112.64 102.4 112.213333 112.213333 0 0 1-72.106667-26.026667L170.666667 265.813333A111.36 111.36 0 0 1 198.4 341.333333a113.28 113.28 0 0 1-102.4 112.64v126.08a113.28 113.28 0 0 1 102.4 112.64 112.213333 112.213333 0 0 1-24.746667 70.4L264.32 853.333333a112.213333 112.213333 0 0 1 71.04-25.173333A113.706667 113.706667 0 0 1 448 928z" fill="#020202" p-id="10470"></path><path d="M512 714.666667a202.666667 202.666667 0 1 1 202.666667-202.666667 202.88 202.88 0 0 1-202.666667 202.666667z m0-384a181.333333 181.333333 0 1 0 181.333333 181.333333 181.546667 181.546667 0 0 0-181.333333-181.333333z" fill="#020202" p-id="10471"></path></svg>