<?xml version="1.0" standalone="no"?><!DOCTYPE svg PUBLIC "-//W3C//DTD SVG 1.1//EN" "http://www.w3.org/Graphics/SVG/1.1/DTD/svg11.dtd"><svg t="1605926707976" class="icon" viewBox="0 0 1024 1024" version="1.1" xmlns="http://www.w3.org/2000/svg" p-id="18637" xmlns:xlink="http://www.w3.org/1999/xlink" width="200" height="200"><defs><style type="text/css"></style></defs><path d="M965.973333 733.866667H61.44c-34.133333 0-61.44-27.306667-61.44-61.44V648.533333c0-10.24 6.826667-17.066667 17.066667-17.066666h989.866666c10.24 0 17.066667 6.826667 17.066667 17.066666v27.306667c0 30.72-27.306667 58.026667-58.026667 58.026667zM34.133333 665.6v10.24c0 13.653333 10.24 27.306667 27.306667 27.306667h904.533333c13.653333 0 27.306667-10.24 27.306667-27.306667v-10.24H34.133333z" fill="" p-id="18638"></path><path d="M1006.933333 665.6c-10.24 0-17.066667-6.826667-17.066666-17.066667 0-78.506667-78.506667-139.946667-133.12-153.6-37.546667-10.24-81.92-27.306667-129.706667-51.2l-221.866667-105.813333c-37.546667-20.48-85.333333-10.24-109.226666 17.066667-23.893333 27.306667-64.853333 40.96-139.946667 40.96-98.986667 0-136.533333-27.306667-153.6-51.2-6.826667-13.653333-20.48-20.48-30.72-20.48H34.133333V648.533333c0 10.24-6.826667 17.066667-17.066666 17.066667S0 658.773333 0 648.533333V307.2c0-10.24 6.826667-17.066667 17.066667-17.066667h54.613333c23.893333 0 44.373333 10.24 58.026667 30.72 17.066667 23.893333 61.44 37.546667 126.293333 37.546667 61.44 0 95.573333-6.826667 112.64-27.306667 34.133333-40.96 102.4-51.2 150.186667-23.893333l221.866666 105.813333c47.786667 23.893333 88.746667 40.96 122.88 51.2 68.266667 17.066667 160.426667 88.746667 160.426667 187.733334 0 6.826667-6.826667 13.653333-17.066667 13.653333z" fill="" p-id="18639"></path><path d="M187.733333 658.773333c-10.24 0-17.066667-10.24-17.066666-17.066666 0-81.92-64.853333-146.773333-153.6-146.773334-10.24 0-17.066667-6.826667-17.066667-17.066666s6.826667-17.066667 17.066667-17.066667c105.813333 0 187.733333 78.506667 187.733333 180.906667 0 6.826667-6.826667 17.066667-17.066667 17.066666zM699.733333 665.6h-6.826666c-10.24-3.413333-13.653333-13.653333-6.826667-23.893333 13.653333-30.72 95.573333-191.146667 170.666667-180.906667 10.24 0 17.066667 10.24 13.653333 20.48 0 10.24-10.24 17.066667-20.48 13.653333-37.546667-6.826667-102.4 92.16-136.533333 160.426667 0 6.826667-6.826667 10.24-13.653334 10.24zM494.933333 426.666667c-3.413333 0-6.826667 0-10.24-3.413334-6.826667-6.826667-10.24-17.066667-3.413333-23.893333l51.2-68.266667c6.826667-6.826667 17.066667-10.24 23.893333-3.413333 6.826667 6.826667 10.24 17.066667 3.413334 23.893333l-51.2 68.266667c-3.413333 3.413333-6.826667 6.826667-13.653334 6.826667zM580.266667 460.8c-3.413333 0-6.826667 0-10.24-3.413333-6.826667-6.826667-10.24-17.066667-3.413334-23.893334l34.133334-51.2c6.826667-6.826667 17.066667-10.24 23.893333-3.413333s10.24 17.066667 3.413333 23.893333l-34.133333 51.2c-3.413333 3.413333-6.826667 6.826667-13.653333 6.826667z" fill="" p-id="18640"></path><path d="M665.6 494.933333c-3.413333 0-6.826667 0-10.24-3.413333-6.826667-6.826667-10.24-17.066667-3.413333-23.893333l34.133333-51.2c6.826667-6.826667 17.066667-10.24 23.893333-3.413334 6.826667 6.826667 10.24 17.066667 3.413334 23.893334l-34.133334 51.2c-3.413333 3.413333-6.826667 6.826667-13.653333 6.826666z" fill="" p-id="18641"></path></svg>