<?xml version="1.0" standalone="no"?><!DOCTYPE svg PUBLIC "-//W3C//DTD SVG 1.1//EN" "http://www.w3.org/Graphics/SVG/1.1/DTD/svg11.dtd"><svg t="1605704965874" class="icon" viewBox="0 0 1197 1024" version="1.1" xmlns="http://www.w3.org/2000/svg" p-id="14042" xmlns:xlink="http://www.w3.org/1999/xlink" width="233.7890625" height="200"><defs><style type="text/css"></style></defs><path d="M1195.297654 421.66059l-15.335374-50.265948a71.565078 71.565078 0 0 0-61.341496-50.265948h-51.969879a4955.029715 4955.029715 0 0 0-78.3808-224.066852c-20.447165-51.969878-85.196522-63.045426-122.682991-74.97294A1002.763063 1002.763063 0 0 0 598.922 1.641737a993.391446 993.391446 0 0 0-262.405287 20.447165c-42.598261 16.187339-102.235826 26.410922-126.090853 77.528835-9.371617 19.5952-44.302191 115.015305-77.528835 221.510957h-51.117913a71.565078 71.565078 0 0 0-61.341496 50.265948L2.546347 421.66059c-8.519652 27.262887 5.111791 59.637565 29.818782 59.637565H87.742869a652.605358 652.605358 0 0 1-23.003061 66.453287 246.217948 246.217948 0 0 0-8.519653 50.265948v375.716662a47.710052 47.710052 0 0 0 45.154157 50.265948h125.238887a47.710052 47.710052 0 0 0 45.154157-50.265948v-69.861148h652.605358v69.861148a47.710052 47.710052 0 0 0 45.154156 50.265948h126.090853a46.858087 46.858087 0 0 0 44.302191-50.265948V598.01739a198.507896 198.507896 0 0 0-6.815721-50.265948s-9.371617-21.29913-23.855027-66.453287h51.969879c26.410922 0 40.042365-32.374678 31.522713-59.637565zM332.256886 723.256278h-59.637565c-53.673809 0-107.347618-9.371617-107.347617-50.265948v-50.265948c0-48.562017 23.003061-49.413983 47.710052-49.413983a326.302679 326.302679 0 0 1 104.791722 41.746296c34.930574 18.743235 73.269009 34.930574 73.269009 66.453287s-13.631444 41.746296-58.785601 41.746296zM207.017999 374.802503a996.799306 996.799306 0 0 1 73.269009-214.695235c6.815722-15.335374 11.927513-64.749357 318.634992-64.749357s313.523201 56.229704 314.375166 57.08167a1288.171411 1288.171411 0 0 1 76.67687 222.362922A1258.352629 1258.352629 0 0 1 598.922 421.66059a1267.724246 1267.724246 0 0 1-391.904001-46.858087z m719.058645 348.453775h-60.48953c-44.302191 0-57.933635-13.631444-57.933635-42.598261s38.338435-46.858087 73.269009-65.601322a308.411409 308.411409 0 0 1 103.939756-42.598261c25.558957 0 48.562017 0 48.562018 50.265948v49.413982c0 41.746296-53.673809 51.117913-107.347618 51.117914z" fill="#515151" p-id="14043"></path></svg>