<?xml version="1.0" standalone="no"?><!DOCTYPE svg PUBLIC "-//W3C//DTD SVG 1.1//EN" "http://www.w3.org/Graphics/SVG/1.1/DTD/svg11.dtd"><svg t="1605871908192" class="icon" viewBox="0 0 1024 1024" version="1.1" xmlns="http://www.w3.org/2000/svg" p-id="9046" xmlns:xlink="http://www.w3.org/1999/xlink" width="200" height="200"><defs><style type="text/css"></style></defs><path d="M653.866667 129.066667c3.2 8.533333 4.266667 18.133333 4.266666 27.733333 0 51.2-41.6 92.8-92.8 92.8s-92.8-41.6-92.8-92.8S514.133333 64 565.333333 64c20.266667 0 39.466667 6.4 54.4 18.133333" fill="#C7E7FF" p-id="9047"></path><path d="M565.333333 265.6c-59.733333 0-108.8-49.066667-108.8-108.8S505.6 48 565.333333 48c23.466667 0 44.8 7.466667 64 20.266667 7.466667 5.333333 8.533333 14.933333 3.2 22.4-5.333333 7.466667-14.933333 8.533333-22.4 3.2C597.333333 85.333333 581.333333 80 565.333333 80c-42.666667 0-76.8 34.133333-76.8 76.8s34.133333 76.8 76.8 76.8 76.8-34.133333 76.8-76.8c0-7.466667-1.066667-14.933333-3.2-22.4-2.133333-8.533333 2.133333-17.066667 10.666667-20.266667 8.533333-2.133333 17.066667 2.133333 20.266667 10.666667 3.2 10.666667 5.333333 21.333333 5.333333 32-1.066667 59.733333-50.133333 108.8-109.866667 108.8z" fill="#272636" p-id="9048"></path><path d="M226.133333 309.333333c1.066667-5.333333 2.133333-6.4 2.133334-6.4 4.266667-22.4 23.466667-35.2 45.866666-35.2h87.466667c28.8 0 51.2 23.466667 45.866667 52.266667L373.333333 514.133333c-4.266667 22.4-23.466667 36.266667-45.866666 36.266667h-87.466667c-28.8 0-51.2-25.6-45.866667-53.333333 0 0 11.733333-67.2 21.333334-122.666667" fill="#C7E7FF" p-id="9049"></path><path d="M228.266667 490.666667s10.666667-70.4 22.4-131.2l12.8-69.333334c1.066667-6.4 2.133333-6.4 2.133333-6.4 1.066667-8.533333 6.4-14.933333 12.8-21.333333-26.666667 5.333333-46.933333 19.2-50.133333 38.4 0 0-1.066667 1.066667-2.133334 6.4L214.4 373.333333c-10.666667 57.6-24.533333 119.466667-24.533333 119.466667-5.333333 28.8 39.466667 48 83.2 45.866667h6.4c-27.733333 1.066667-55.466667-24.533333-51.2-48z" fill="#068BBF" p-id="9050"></path><path d="M327.466667 568.533333h-87.466667c-19.2 0-37.333333-8.533333-50.133333-23.466666-11.733333-13.866667-17.066667-33.066667-13.866667-51.2 0 0 11.733333-67.2 21.333333-122.666667 2.133333-9.6 10.666667-16 20.266667-13.866667 9.6 2.133333 16 10.666667 13.866667 20.266667-9.6 56.533333-21.333333 122.666667-21.333334 122.666667-1.066667 8.533333 1.066667 16 6.4 22.4 5.333333 6.4 13.866667 10.666667 22.4 10.666666h87.466667c14.933333 0 26.666667-8.533333 28.8-21.333333l35.2-195.2c2.133333-9.6-2.133333-17.066667-5.333333-21.333333-5.333333-6.4-13.866667-9.6-23.466667-9.6h-87.466667c-11.733333 0-25.6 5.333333-28.8 21.333333 0 1.066667-1.066667 3.2-1.066666 4.266667v2.133333c-2.133333 9.6-10.666667 16-20.266667 13.866667-9.6-2.133333-16-10.666667-13.866667-20.266667 0-3.2 1.066667-5.333333 2.133334-8.533333 6.4-28.8 32-48 62.933333-48H362.666667c20.266667 0 38.4 8.533333 50.133333 22.4s16 32 12.8 50.133333l-35.2 195.2c-5.333333 28.8-30.933333 50.133333-62.933333 50.133333z" fill="#272636" p-id="9051"></path><path d="M354.133333 823.466667c-14.933333 75.733333-26.666667 135.466667-26.666666 135.466666h96L475.733333 693.333333 576 960h92.8L506.666667 530.133333l-93.866667-3.2s-24.533333 121.6-46.933333 235.733334" fill="#C7E7FF" p-id="9052"></path><path d="M668.8 976H576c-6.4 0-12.8-4.266667-14.933333-10.666667l-81.066667-213.333333-40.533333 210.133333c-1.066667 7.466667-8.533333 12.8-16 12.8h-96c-4.266667 0-9.6-2.133333-12.8-6.4-3.2-3.2-4.266667-8.533333-3.2-12.8l26.666666-135.466666c2.133333-8.533333 9.6-13.866667 19.2-12.8 8.533333 2.133333 13.866667 9.6 12.8 19.2l-23.466666 116.266666h62.933333L458.666667 690.133333c1.066667-7.466667 7.466667-12.8 13.866666-12.8 7.466667 0 13.866667 3.2 16 10.666667l97.066667 256h58.666667l-149.333334-397.866667-69.333333-2.133333-43.733333 221.866667c-2.133333 8.533333-9.6 13.866667-19.2 12.8-8.533333-2.133333-13.866667-9.6-12.8-19.2l46.933333-235.733334c1.066667-7.466667 8.533333-12.8 16-12.8l93.866667 3.2c6.4 0 11.733333 4.266667 13.866666 10.666667l161.066667 429.866667c2.133333 5.333333 1.066667 10.666667-2.133333 14.933333-1.066667 4.266667-5.333333 6.4-10.666667 6.4z" fill="#272636" p-id="9053"></path><path d="M848 965.333333c-8.533333 0-16-7.466667-16-16V266.666667c0-8.533333 7.466667-16 16-16s16 7.466667 16 16v682.666666c0 8.533333-6.4 16-16 16z" fill="" p-id="9054"></path><path d="M532.266667 585.6H401.066667l51.2-295.466667h131.2z" fill="#C7E7FF" p-id="9055"></path><path d="M532.266667 601.6H401.066667c-4.266667 0-9.6-2.133333-11.733334-5.333333-3.2-3.2-4.266667-8.533333-3.2-12.8L436.266667 288c1.066667-7.466667 7.466667-12.8 16-12.8h131.2c4.266667 0 9.6 2.133333 11.733333 5.333333 3.2 3.2 4.266667 8.533333 3.2 12.8l-51.2 295.466667c-1.066667 7.466667-7.466667 12.8-14.933333 12.8z m-112-32h98.133333l45.866667-263.466667h-98.133334l-45.866666 263.466667z" fill="#272636" p-id="9056"></path><path d="M819.2 334.933333l-131.2 48-104.533333-92.8h-105.6L666.666667 469.333333l152.533333-67.2z" fill="#C7E7FF" p-id="9057"></path><path d="M666.666667 485.333333c-4.266667 0-7.466667-1.066667-10.666667-4.266666L466.133333 301.866667c-4.266667-4.266667-6.4-11.733333-4.266666-17.066667 2.133333-6.4 8.533333-9.6 14.933333-9.6h105.6c4.266667 0 7.466667 1.066667 10.666667 4.266667l98.133333 85.333333L813.866667 320c5.333333-2.133333 10.666667-1.066667 14.933333 2.133333 4.266667 3.2 6.4 7.466667 6.4 12.8v67.2c0 6.4-4.266667 11.733333-9.6 14.933334L672 484.266667c-1.066667 1.066667-3.2 1.066667-5.333333 1.066666z m-149.333334-179.2l151.466667 144 134.4-58.666666v-34.133334L693.333333 397.866667c-5.333333 2.133333-11.733333 1.066667-16-3.2l-100.266666-87.466667h-59.733334z" fill="#272636" p-id="9058"></path><path d="M352 406.4h-2.133333c-5.333333-1.066667-9.6-6.4-8.533334-12.8l13.866667-70.4c1.066667-5.333333 6.4-9.6 12.8-8.533333 5.333333 1.066667 9.6 6.4 8.533333 12.8L362.666667 397.866667c-2.133333 4.266667-6.4 8.533333-10.666667 8.533333z" fill="#FFFFFF" p-id="9059"></path><path d="M611.2 132.266667c-3.2 0-7.466667-2.133333-9.6-5.333334-17.066667-29.866667-56.533333-14.933333-57.6-13.866666-5.333333 2.133333-11.733333 0-13.866667-6.4-2.133333-5.333333 0-11.733333 6.4-13.866667 20.266667-8.533333 62.933333-13.866667 84.266667 23.466667 3.2 5.333333 1.066667 11.733333-4.266667 14.933333-2.133333 1.066667-4.266667 1.066667-5.333333 1.066667z" fill="#FFFFFF" p-id="9060"></path></svg>