<?xml version="1.0" standalone="no"?><!DOCTYPE svg PUBLIC "-//W3C//DTD SVG 1.1//EN" "http://www.w3.org/Graphics/SVG/1.1/DTD/svg11.dtd"><svg t="1605926094144" class="icon" viewBox="0 0 1024 1024" version="1.1" xmlns="http://www.w3.org/2000/svg" p-id="8705" xmlns:xlink="http://www.w3.org/1999/xlink" width="200" height="200"><defs><style type="text/css"></style></defs><path d="M510.7 358.1c41.8 0 81.3 16.4 111.1 46.2 35.6 35.6 51.8 84.6 44.4 134.5-7.4 49.8-37.1 92.1-81.5 115.8L161.8 880.9c-2.2 1.2-4.2 1.7-6.1 1.7-4 0-8.3-2.7-10.7-6.7-2.9-4.9-1.5-8.8 0.1-11.7l226.4-422.9c27.5-51.3 80.8-83.2 139.2-83.2m0-43.7c-70.8 0-140.6 37-177.7 106.3L106.6 843.6c-21.4 39.9 10.2 82.7 49.1 82.7 8.7 0 17.7-2.1 26.7-6.9L605.3 693c119-63.7 142.8-224.2 47.3-319.6-39.8-39.9-91.1-59-141.9-59z" fill="#515151" p-id="8706"></path><path d="M459.3 588.2c-5.6 0-11.2-2.1-15.4-6.4L336.6 474.5c-8.5-8.5-8.5-22.3 0-30.9 8.5-8.5 22.3-8.5 30.9 0L474.8 551c8.5 8.5 8.5 22.3 0 30.9-4.3 4.2-9.9 6.3-15.5 6.3zM474.4 745.1c-5.6 0-11.2-2.1-15.4-6.4l-83.2-83.2c-8.5-8.5-8.5-22.3 0-30.9 8.5-8.5 22.3-8.5 30.9 0l83.2 83.2c8.5 8.5 8.5 22.3 0 30.9-4.3 4.3-9.9 6.4-15.5 6.4zM310.6 728.3c-5.6 0-11.2-2.1-15.4-6.4l-58.7-58.7c-8.5-8.5-8.5-22.3 0-30.9 8.5-8.5 22.3-8.5 30.9 0l58.7 58.7c8.5 8.5 8.5 22.3 0 30.9-4.3 4.2-9.9 6.4-15.5 6.4z" fill="#515151" p-id="8707"></path><path d="M738.7 98.1c-48.2 0-87.3 57-87.3 127.3 0 44.9 16 84.3 40.1 107-25.8-27.4-22.9-75.3 4-118.4 3.5-44.4 26.7-72.2 43.2-72.2 6.2 0 13.4 4 20.1 11.3 14.1-8 28.5-13.5 42.5-16.3-15.9-23.9-38.1-38.7-62.6-38.7z m0 254.5h0.2c-0.7 0-1.3-0.1-2-0.1 0.6 0 1.2 0.1 1.8 0.1z" fill="#515151" p-id="8708"></path><path d="M673.4 287.4c0 8.2 1.8 16 4.8 23.5-2.9-8-4.4-16.7-4.6-25.8 0 0.8-0.2 1.5-0.2 2.3zM889.7 225c-2.8 14-8.3 28.5-16.3 42.6 7.1 6.6 11 13.7 11 19.8 0 16.3-27.4 39.3-71.2 43.1-43.4 27.4-91.7 30.4-119.2 4.3 22.7 24 62 39.9 106.8 39.9 70.3 0 127.3-39.1 127.3-87.3-0.1-24.5-14.8-46.6-38.4-62.4z" fill="#515151" p-id="8709"></path><path d="M822.1 178.2c6.1 0 14.5 1.1 19.7 6.4 12.6 12.6 7.8 53.9-28.3 90-25.5 25.5-53 34.6-70.3 34.6-6.1 0-14.5-1.1-19.7-6.4-8.4-8.4-6.5-24.6-5.2-31.2 3.7-19.8 15.9-41.2 33.5-58.9 25.5-25.4 53-34.5 70.3-34.5m0-43.7c-32.4 0-70.3 16.6-101.1 47.4-49.7 49.7-62.4 117.6-28.3 151.7 12.9 12.9 30.8 19.1 50.6 19.1 32.4 0 70.3-16.6 101.1-47.4 49.7-49.7 62.4-117.6 28.3-151.7-13-12.8-30.8-19.1-50.6-19.1z" fill="#515151" p-id="8710"></path></svg>